# xmcd
#
# Track frame offsets:
#	150
#	18596
#	38735
#	56423
#	69835
#	87942
#	101752
#	119675
#	138713
#	155355
#	171982
#	187168
#	201848
#	218558
#	236698
#	254070
#	273989
#	288974
#
# Disc length: 4056 seconds
#
# Revision: 1
# Processed by: cddbd v1.5.2PL0 Copyright (c) Steve Scherf et al.
# Submitted via: audiograbber 1.83.01
#
DISCID=110fd612
DTITLE=Various Artist - Hc108
DYEAR=2005
DGENRE=Country
TTITLE0=Brandt, Paul - Home
TTITLE1=Lonestar - Class Reunion
TTITLE2=Twain, Shania - Don't
TTITLE3=Stott, Amanda - Homeless Heart
TTITLE4=Larsen, Blaine - How Do You Get That Lonely
TTITLE5=Roberts, Julie - Wake Up Older
TTITLE6=Canyon, George - My Name
TTITLE7=Johnson, Carolyn Dawn - Dress Rehearsal
TTITLE8=Wilkinsons - Leaving Song
TTITLE9=Bentley, Dierks - Lot Of Leavin' Left To Do
TTITLE10=Emerson Drive - If You Were My Girl
TTITLE11=Jewel, Buddy - If She Were Any Other Woman
TTITLE12=Ruttan, Deric - Take The Wheel
TTITLE13=Howard, Rebecca Lynn - That's Why I Hate Pontiacs
TTITLE14=Reid, Johnny - Zero To Sixty
TTITLE15=Keen, Robert Earl - Out Here In The Middle
TTITLE16=Shelton, Blake - Goodbye Time
TTITLE17=Chesney, Kenny - Old Blue Chair
EXTD=
EXTT0=
EXTT1=
EXTT2=
EXTT3=
EXTT4=
EXTT5=
EXTT6=
EXTT7=
EXTT8=
EXTT9=
EXTT10=
EXTT11=
EXTT12=
EXTT13=
EXTT14=
EXTT15=
EXTT16=
EXTT17=
PLAYORDER=
